<?xml version="1.0" encoding="UTF-8"?>
<svg width="33px" height="42px" viewBox="0 0 33 42" version="1.1" xmlns="http://www.w3.org/2000/svg" xmlns:xlink="http://www.w3.org/1999/xlink">
    <!-- Generator: Sketch 49.3 (51167) - http://www.bohemiancoding.com/sketch -->
    <title>ic-book</title>
    <desc>Created with Sketch.</desc>
    <defs></defs>
    <g id="首頁" stroke="none" stroke-width="1" fill="none" fill-rule="evenodd">
        <g id="簡潔橘-第七版" transform="translate(-545.000000, -747.000000)" fill="#73B9FF">
            <g id="快捷區塊" transform="translate(36.000000, 442.000000)">
                <g id="ic-book" transform="translate(496.000000, 296.000000)">
                    <path d="M22.5045333,40.7265333 L22.5045333,39.9698667 C22.5558667,39.6552 22.7858667,38.6758667 23.7005333,38.6758667 L42.8278667,38.6758667 L42.8278667,40.7265333 L22.5045333,40.7265333 Z M17.8478667,48.0205333 L17.7938667,47.2438667 C17.8225333,46.9572 17.9858667,45.9565333 18.8965333,45.8932 C20.7705333,45.7638667 33.7545333,44.8552 37.9778667,44.5598667 L38.1212,46.6052 L17.8478667,48.0205333 Z M16.5992,19.9092 C16.7452,19.7298667 16.9832,19.5185333 17.5158667,19.4812 L19.8432,19.3185333 L19.8372,42.0592 C19.8372,42.4132 19.9778667,42.7525333 20.2278667,43.0025333 C20.2705333,43.0458667 20.3205333,43.0812 20.3685333,43.1178667 C19.5918667,43.1718667 19.0092,43.2125333 18.7125333,43.2332 C18.2685333,43.2638667 17.8798667,43.3612 17.5325333,43.4992 L16.0892,22.7865333 C16.0872,22.7592 16.0845333,22.7325333 16.0812,22.7058667 C16.0292,22.3118667 15.9658667,20.6838667 16.5992,19.9092 Z M23.2205333,12.5945333 C23.3792,12.4258667 23.6298667,12.2325333 24.1632,12.2325333 L42.8278667,12.2325333 L42.8278667,36.0092 L23.7005333,36.0092 C23.2558667,36.0092 22.8618667,36.0792 22.5058667,36.1932 L22.5112,15.4292 C22.5112,15.4018667 22.5105333,15.3752 22.5085333,15.3485333 C22.4852,14.9518667 22.5352,13.3225333 23.2205333,12.5945333 Z M44.1612,9.5652 L24.1632,9.5652 C23.0165333,9.5652 22.0185333,9.98053333 21.2785333,10.7665333 C19.7685333,12.3712 19.8218667,14.9925333 19.8445333,15.4632 L19.8438667,16.6452 L17.3298667,16.8212 C16.1845333,16.9012 15.2172,17.3852 14.5345333,18.2212 C13.1392,19.9278667 13.3758667,22.5392 13.4318667,23.0072 L15.2798667,49.5365333 C15.3045333,49.8892 15.4678667,50.2178667 15.7352,50.4498667 C15.9785333,50.6618667 16.2898667,50.7772 16.6098667,50.7772 C16.6405333,50.7772 16.6718667,50.7758667 16.7032,50.7738667 L39.6372,49.1725333 C39.9905333,49.1478667 40.3185333,48.9845333 40.5505333,48.7172 C40.7825333,48.4505333 40.8992,48.1018667 40.8745333,47.7492 L40.5692,43.3932 L44.1612,43.3932 C44.8978667,43.3932 45.4945333,42.7958667 45.4945333,42.0598667 L45.4945333,10.8985333 C45.4945333,10.1625333 44.8978667,9.5652 44.1612,9.5652 Z" id="Fill-3"></path>
                </g>
            </g>
        </g>
    </g>
</svg>