<?xml version="1.0" encoding="UTF-8"?>
<svg width="46px" height="30px" viewBox="0 0 46 30" version="1.1" xmlns="http://www.w3.org/2000/svg" xmlns:xlink="http://www.w3.org/1999/xlink">
    <!-- Generator: Sketch 49.3 (51167) - http://www.bohemiancoding.com/sketch -->
    <title>ic-downloadBook</title>
    <desc>Created with Sketch.</desc>
    <defs></defs>
    <g id="首頁" stroke="none" stroke-width="1" fill="none" fill-rule="evenodd">
        <g id="簡潔橘-第七版" transform="translate(-539.000000, -657.000000)" fill="#91CC52">
            <g id="快捷區塊" transform="translate(36.000000, 442.000000)">
                <g id="ic-downloadBook" transform="translate(496.000000, 200.000000)">
                    <g id="Group-9" transform="translate(7.333333, 14.666667)">
                        <path d="M3.03253333,27.5 L3.03253333,27.0313333 C3.06786667,26.8193333 3.23853333,26.0793333 3.89053333,26.0793333 L20.2865333,26.0793333 L20.2865333,27.5 L3.03253333,27.5 Z M3.60453333,3.42466667 C3.7252,3.29666667 3.9012,3.16666667 4.2932,3.16666667 L20.2865333,3.16666667 L20.2865333,23.4126667 L3.89053333,23.4126667 C3.58053333,23.4126667 3.29586667,23.4473333 3.03386667,23.51 L3.03786667,5.75866667 C3.03786667,5.732 3.0372,5.70533333 3.0352,5.67866667 C3.00653333,5.19266667 3.1092,3.95133333 3.60453333,3.42466667 Z M21.6198667,0.5 L4.2932,0.5 C3.24853333,0.5 2.3392,0.878666667 1.6632,1.59666667 C0.310533333,3.03333333 0.3512,5.35866667 0.3712,5.79266667 L0.365866667,28.8333333 C0.365866667,29.1866667 0.506533333,29.526 0.756533333,29.776 C1.00653333,30.026 1.34586667,30.1666667 1.6992,30.1666667 L21.6198667,30.1666667 C22.3558667,30.1666667 22.9532,29.5693333 22.9532,28.8333333 L22.9532,1.83333333 C22.9532,1.09733333 22.3558667,0.5 21.6198667,0.5 Z" id="Fill-3"></path>
                        <path d="M26.1412667,16.1725333 L34.5459333,22.8392 C34.5552667,22.8465333 34.5666,22.8485333 34.5752667,22.8545333 C34.6786,22.9332 34.7932667,22.9958667 34.9166,23.0418667 C34.9386,23.0492 34.9606,23.0552 34.9832667,23.0625333 C35.1079333,23.1012 35.2379333,23.1278667 35.3752667,23.1278667 C35.5126,23.1278667 35.6419333,23.1012 35.7666,23.0625333 C35.7892667,23.0552 35.8112667,23.0492 35.8332667,23.0418667 C35.9572667,22.9958667 36.0719333,22.9332 36.1746,22.8545333 C36.1832667,22.8485333 36.1946,22.8465333 36.2039333,22.8392 L44.6086,16.1725333 C45.1852667,15.7145333 45.2819333,14.8758667 44.8246,14.2985333 C44.3659333,13.7218667 43.5286,13.6272 42.9512667,14.0825333 L36.7086,19.0345333 L36.7086,5.79453333 C36.7086,5.05786667 36.1112667,4.4612 35.3752667,4.4612 C34.6386,4.4612 34.0419333,5.05786667 34.0419333,5.79453333 L34.0419333,19.0345333 L27.7986,14.0825333 C27.2219333,13.6272 26.3839333,13.7225333 25.9252667,14.2985333 C25.4679333,14.8758667 25.5646,15.7145333 26.1412667,16.1725333" id="Fill-5"></path>
                        <path d="M43.7799333,27.1276 L26.9699333,27.1276 C26.2339333,27.1276 25.6366,27.7249333 25.6366,28.4609333 C25.6366,29.1969333 26.2339333,29.7942667 26.9699333,29.7942667 L43.7799333,29.7942667 C44.5159333,29.7942667 45.1132667,29.1969333 45.1132667,28.4609333 C45.1132667,27.7249333 44.5159333,27.1276 43.7799333,27.1276" id="Fill-7"></path>
                    </g>
                </g>
            </g>
        </g>
    </g>
</svg>