<?xml version="1.0" encoding="UTF-8"?>
<svg width="46px" height="30px" viewBox="0 0 46 30" version="1.1" xmlns="http://www.w3.org/2000/svg" xmlns:xlink="http://www.w3.org/1999/xlink">
    <!-- Generator: Sketch 49.3 (51167) - http://www.bohemiancoding.com/sketch -->
    <title>ic-downloadDoc</title>
    <desc>Created with Sketch.</desc>
    <defs></defs>
    <g id="首頁" stroke="none" stroke-width="1" fill="none" fill-rule="evenodd">
        <g id="簡潔橘-第七版" transform="translate(-539.000000, -561.000000)" fill="#FFCF4D">
            <g id="快捷區塊" transform="translate(36.000000, 442.000000)">
                <g id="ic-downloadDoc" transform="translate(496.000000, 104.000000)">
                    <g id="Group-15" transform="translate(7.333333, 14.666667)">
                        <path d="M26.1412667,16.1725333 L34.5459333,22.8392 C34.5552667,22.8465333 34.5666,22.8485333 34.5752667,22.8545333 C34.6786,22.9332 34.7932667,22.9958667 34.9166,23.0418667 C34.9386,23.0492 34.9606,23.0552 34.9832667,23.0625333 C35.1079333,23.1012 35.2379333,23.1278667 35.3752667,23.1278667 C35.5126,23.1278667 35.6419333,23.1012 35.7666,23.0625333 C35.7892667,23.0552 35.8112667,23.0492 35.8332667,23.0418667 C35.9572667,22.9958667 36.0719333,22.9332 36.1746,22.8545333 C36.1832667,22.8485333 36.1946,22.8465333 36.2039333,22.8392 L44.6086,16.1725333 C45.1852667,15.7145333 45.2819333,14.8758667 44.8246,14.2985333 C44.3666,13.7218667 43.5279333,13.6272 42.9512667,14.0825333 L36.7086,19.0345333 L36.7086,5.79453333 C36.7086,5.05786667 36.1112667,4.4612 35.3752667,4.4612 C34.6386,4.4612 34.0419333,5.05786667 34.0419333,5.79453333 L34.0419333,19.0345333 L27.7986,14.0825333 C27.2219333,13.6272 26.3839333,13.7225333 25.9252667,14.2985333 C25.4679333,14.8758667 25.5646,15.7145333 26.1412667,16.1725333" id="Fill-3"></path>
                        <path d="M43.7799333,27.1276 L26.9699333,27.1276 C26.2339333,27.1276 25.6366,27.7249333 25.6366,28.4609333 C25.6366,29.1969333 26.2339333,29.7942667 26.9699333,29.7942667 L43.7799333,29.7942667 C44.5159333,29.7942667 45.1132667,29.1969333 45.1132667,28.4609333 C45.1132667,27.7249333 44.5159333,27.1276 43.7799333,27.1276" id="Fill-5"></path>
                        <path d="M17.0885333,22.5 L6.58853333,22.5 C5.85253333,22.5 5.2552,23.0973333 5.2552,23.8333333 C5.2552,24.5693333 5.85253333,25.1666667 6.58853333,25.1666667 L17.0885333,25.1666667 C17.8245333,25.1666667 18.4218667,24.5693333 18.4218667,23.8333333 C18.4218667,23.0973333 17.8245333,22.5 17.0885333,22.5" id="Fill-7"></path>
                        <path d="M17.0885333,17.5 L6.58853333,17.5 C5.85253333,17.5 5.2552,18.0973333 5.2552,18.8333333 C5.2552,19.5693333 5.85253333,20.1666667 6.58853333,20.1666667 L17.0885333,20.1666667 C17.8245333,20.1666667 18.4218667,19.5693333 18.4218667,18.8333333 C18.4218667,18.0973333 17.8245333,17.5 17.0885333,17.5" id="Fill-9"></path>
                        <path d="M6.58853333,12.5 C5.85253333,12.5 5.2552,13.0973333 5.2552,13.8333333 C5.2552,14.5693333 5.85253333,15.1666667 6.58853333,15.1666667 L17.0885333,15.1666667 C17.8245333,15.1666667 18.4218667,14.5693333 18.4218667,13.8333333 C18.4218667,13.0973333 17.8245333,12.5 17.0885333,12.5 L6.58853333,12.5 Z" id="Fill-11"></path>
                        <path d="M20.5052,27.5 L3.17186667,27.5 L3.17186667,10.6666667 L9.33853333,10.6666667 C10.0745333,10.6666667 10.6718667,10.0693333 10.6718667,9.33333333 L10.6718667,3.16666667 L20.5052,3.16666667 L20.5052,27.5 Z M8.0052,5.052 L8.0052,8 L5.0572,8 L8.0052,5.052 Z M21.8385333,0.5 L9.33853333,0.5 C9.2532,0.5 9.1692,0.509333333 9.08653333,0.524666667 C9.08186667,0.526 9.0772,0.526 9.0732,0.527333333 C8.96253333,0.549333333 8.8572,0.590666667 8.75653333,0.64 C8.7292,0.652666667 8.7032,0.667333333 8.67653333,0.682666667 C8.5752,0.740666667 8.4792,0.807333333 8.39586667,0.890666667 L0.895866667,8.39066667 C0.811866667,8.47466667 0.744533333,8.57133333 0.686533333,8.67333333 C0.672533333,8.69866667 0.658533333,8.72333333 0.645866667,8.74933333 C0.595866667,8.85266667 0.5532,8.95933333 0.5312,9.07266667 C0.530533333,9.07333333 0.5312,9.07466667 0.530533333,9.076 C0.514533333,9.16 0.5052,9.246 0.5052,9.33333333 L0.5052,28.8333333 C0.5052,29.5693333 1.10253333,30.1666667 1.83853333,30.1666667 L21.8385333,30.1666667 C22.5745333,30.1666667 23.1718667,29.5693333 23.1718667,28.8333333 L23.1718667,1.83333333 C23.1718667,1.09733333 22.5745333,0.5 21.8385333,0.5 Z" id="Fill-13"></path>
                    </g>
                </g>
            </g>
        </g>
    </g>
</svg>