<?xml version="1.0" encoding="UTF-8"?>
<svg width="33px" height="45px" viewBox="0 0 33 45" version="1.1" xmlns="http://www.w3.org/2000/svg" xmlns:xlink="http://www.w3.org/1999/xlink">
    <!-- Generator: Sketch 49.3 (51167) - http://www.bohemiancoding.com/sketch -->
    <title>ic-question</title>
    <desc>Created with Sketch.</desc>
    <defs></defs>
    <g id="首頁" stroke="none" stroke-width="1" fill="none" fill-rule="evenodd" stroke-linecap="round" stroke-linejoin="round">
        <g id="簡潔橘-第七版" transform="translate(-544.000000, -458.000000)" stroke="#FF8400" stroke-width="2.5">
            <g id="快捷區塊" transform="translate(36.000000, 442.000000)">
                <g id="ic-question" transform="translate(496.000000, 8.000000)">
                    <path d="M18.4815,11.527125 L21.14775,16.145875" id="Stroke-3"></path>
                    <path d="M25.7355,9.993875 L25.17175,15.340125" id="Stroke-5"></path>
                    <path d="M13.526625,17.04225 L18.436625,19.22725" id="Stroke-7"></path>
                    <path d="M37.30475,23.420375 C34.446,18.467875 28.11225,16.770375 23.15975,19.630375 C18.20725,22.490375 16.50975,28.822875 19.3685,33.775375 C21.3435,37.196625 24.5235,37.506625 27.5835,39.572875 C28.47225,40.172875 29.51225,40.987875 30.1035,42.011625 C31.651,44.691625 33.5385,43.326625 36.01475,41.895375 C38.491,40.466625 40.61725,39.512875 39.071,36.834125 C38.4785,35.810375 38.2935,34.502875 38.2185,33.432875 C37.95975,29.749125 39.281,26.841625 37.30475,23.420375 Z" id="Stroke-9"></path>
                    <path d="M34.72475,47.948 L41.6035,42.363" id="Stroke-11"></path>
                    <path d="M38.104875,49.973125 L41.973625,46.831875" id="Stroke-13"></path>
                    <path d="M43.479625,45.610375 L41.973375,46.832875" id="Stroke-15"></path>
                    <path d="M38.104875,49.973125 L36.599875,51.196875" id="Stroke-17"></path>
                    <path d="M38.104875,49.973125 C38.866125,50.911875 40.209875,51.191875 41.289875,50.569375 C42.486125,49.878125 42.896125,48.349375 42.204875,47.153125 C42.137375,47.036875 42.057375,46.934375 41.973625,46.831875" id="Stroke-19"></path>
                    <path d="M34.271875,41.2915 C34.271875,41.2915 28.256875,32.8065 25.209375,30.5615 C28.373125,30.744 29.586875,30.764 29.586875,30.764" id="Stroke-21"></path>
                    <path d="M36.362875,40.08425 C36.362875,40.08425 32.022875,30.633 31.602875,26.87175 C30.177875,29.70175 29.587875,30.76425 29.587875,30.76425" id="Stroke-23"></path>
                </g>
            </g>
        </g>
    </g>
</svg>